<?xml version="1.0" encoding="UTF-8"?>
<svg xmlns="http://www.w3.org/2000/svg" viewBox="0 0 28 28" width="28px" height="28px">
<g id="surface44710520">
<path style=" stroke:none;fill-rule:nonzero;fill:rgb(69.411767%,70.588237%,72.941178%);fill-opacity:1;" d="M 24.269531 2.238281 L 3.734375 2.238281 C 2.910156 2.238281 2.238281 2.910156 2.238281 3.734375 L 2.238281 24.265625 C 2.238281 25.089844 2.910156 25.761719 3.734375 25.761719 L 24.265625 25.761719 C 25.089844 25.761719 25.761719 25.089844 25.761719 24.269531 L 25.761719 3.734375 C 25.761719 2.910156 25.089844 2.238281 24.269531 2.238281 Z M 15.121094 20.261719 C 15.121094 22.5 13.808594 23.519531 11.890625 23.519531 C 10.160156 23.519531 8.910156 22.359375 8.398438 21.28125 L 10.160156 20.214844 C 10.5 20.816406 11.015625 21.28125 11.761719 21.28125 C 12.472656 21.28125 12.878906 21.003906 12.878906 19.921875 L 12.878906 12.878906 L 15.121094 12.878906 Z M 19.976562 23.519531 C 17.996094 23.519531 16.867188 22.519531 16.238281 21.28125 L 17.921875 20.160156 C 18.378906 20.90625 18.875 21.625 19.929688 21.625 C 20.816406 21.625 21.28125 21.179688 21.28125 20.570312 C 21.28125 19.839844 20.796875 19.578125 19.824219 19.152344 L 19.292969 18.921875 C 17.75 18.265625 16.722656 17.441406 16.722656 15.703125 C 16.722656 14.101562 17.945312 12.878906 19.855469 12.878906 C 21.210938 12.878906 22.1875 13.351562 22.890625 14.589844 L 21.230469 15.660156 C 20.863281 15 20.46875 14.742188 19.855469 14.742188 C 19.226562 14.742188 18.832031 15.140625 18.832031 15.660156 C 18.832031 16.300781 19.226562 16.558594 20.144531 16.957031 L 20.679688 17.1875 C 22.496094 17.964844 23.519531 18.757812 23.519531 20.542969 C 23.519531 22.464844 22.007812 23.519531 19.976562 23.519531 Z M 19.976562 23.519531 "/>
</g>
</svg>
